<?xml version="1.0" encoding="utf-8"?>
<!-- Generator: Adobe Illustrator 27.3.1, SVG Export Plug-In . SVG Version: 6.00 Build 0)  -->
<svg version="1.1" id="Layer_1" xmlns="http://www.w3.org/2000/svg" xmlns:xlink="http://www.w3.org/1999/xlink" x="0px" y="0px"
	 viewBox="0 0 800 800" style="enable-background:new 0 0 800 800;" xml:space="preserve">
<g>
	<path d="M424.98,258.37c-0.68-5.47-1.52-10.93-2.84-16.28c-0.07-0.28-0.14-0.56-0.21-0.84c0,0,0,0,0,0c0,0,0,0,0,0
		c-0.56,2.39-1.11,4.77-1.56,7.18c-0.52,2.84-0.94,5.69-1.32,8.55c-0.76,5.75-1.31,11.56-1.47,17.37
		c-0.17,5.87,0.32,11.76,1.03,17.57c0.72,5.87,1.73,11.69,3.01,17.47c0.1,0.44,0.2,0.89,0.3,1.33c0,0,0.01,0,0.01,0
		c1.32-5.74,2.36-11.53,3.13-17.37c0.78-5.83,1.29-11.72,1.24-17.61c-0.02-2.92-0.21-5.83-0.45-8.74
		C425.62,264.12,425.34,261.24,424.98,258.37z"/>
	<path d="M419.5,206.12c0.54,7.13,1.37,14.23,2.42,21.3c0,0,0.01,0,0.01,0c0.84-5.65,1.55-11.32,2.06-17.01
		c0.53-5.95,0.91-11.91,1.1-17.88c0.19-5.9,0.3-11.81,0.18-17.71c-0.12-5.92-0.46-11.84-0.94-17.75c-0.29-3.63-0.64-7.25-1.07-10.87
		c-0.41-3.52-0.9-7.04-1.33-10.56c0,0,0,0,0,0s0,0,0,0c-0.71,5.73-1.49,11.44-2.03,17.19c-0.55,5.88-0.95,11.77-1.18,17.67
		c-0.23,5.93-0.24,11.87-0.09,17.8C418.78,194.25,419.05,200.19,419.5,206.12z"/>
	<path d="M421.93,123.64c0.08,0.01,0.16-0.03,0.18-0.13c1.1-7.03,2.01-14.1,1.96-21.23c-0.02-3.44-0.23-6.87-0.57-10.29
		c-0.35-3.46-1-6.9-1.56-10.33c0,0,0,0,0,0c0,0,0,0,0,0c-0.55,3.33-1.11,6.66-1.53,10.01c-0.21,1.67-0.31,3.36-0.41,5.04
		c-0.11,1.86-0.17,3.72-0.19,5.58c-0.08,7.12,0.86,14.21,1.96,21.23C421.77,123.61,421.85,123.65,421.93,123.64z"/>
	<path d="M425.16,532.04c-0.03-2.9-0.02-5.8-0.09-8.69c-0.16-6.61-0.56-13.21-1.12-19.8c-0.55-6.44-1.34-12.85-2.01-19.27
		c0,0,0,0,0,0c0,0,0,0,0,0c-0.6,5.72-1.27,11.42-1.82,17.14c-0.56,5.91-0.96,11.83-1.18,17.76c-0.22,5.8-0.22,11.6-0.27,17.4
		c-0.05,5.81-0.19,11.62-0.14,17.43c0.05,6.5,0.31,13,0.89,19.47c0.29,3.23,0.65,6.44,1.08,9.65c0.4,2.97,0.99,5.91,1.43,8.87
		c0,0,0.01,0,0.01,0c0.39-2.65,0.9-5.28,1.29-7.93c0.42-2.82,0.75-5.65,1.03-8.49c0.57-5.79,0.88-11.59,1.03-17.4
		c0.14-5.81,0.03-11.62-0.04-17.42C425.2,537.84,425.18,534.94,425.16,532.04z"/>
	<path d="M423.39,632.54c-0.16-1.99-0.42-3.98-0.63-5.96c-0.2-1.9-0.43-3.8-0.6-5.71c-0.19-2.08-0.18-4.18-0.23-6.26c0,0,0,0,0,0
		c0,0,0,0,0,0c-0.04,1.99-0.04,3.98-0.2,5.96c-0.15,1.91-0.37,3.82-0.59,5.73c-0.12,0.99-0.22,1.98-0.33,2.97
		c-0.11,0.99-0.23,1.99-0.31,2.98c-0.17,2.1-0.36,4.21-0.41,6.32c-0.11,4.06,0.07,8.14,0.37,12.19c0.3,4.07,0.85,8.11,1.4,12.15
		c0,0,0,0,0,0c0.03,0.2,0.05,0.4,0.08,0.59c0,0.01,0.01,0.01,0.01,0c0.03-0.2,0.05-0.39,0.08-0.59c0,0,0,0,0,0
		c0.53-3.94,1.07-7.88,1.38-11.85c0.32-4.15,0.49-8.32,0.39-12.49C423.73,636.55,423.55,634.54,423.39,632.54z"/>
	<path d="M542.13,731.2C542.13,731.2,542.12,731.2,542.13,731.2C542.12,731.2,542.12,731.2,542.13,731.2
		c0.42,1.46,1.01,2.87,1.85,4.14c0.85,1.3,2.08,2.37,3.3,3.29c0,0,0.01,0,0.01,0c-0.43-1.46-1.02-2.86-1.85-4.14
		C544.58,733.2,543.35,732.13,542.13,731.2z"/>
	<path d="M346.85,332.13c-4.24-3.94-8.38-7.98-12.76-11.76c-2.19-1.89-4.41-3.74-6.64-5.57c-2.23-1.82-4.45-3.65-6.7-5.45
		c-4.63-3.69-9.39-7.23-14.25-10.62c-2.98-2.08-5.98-4.12-9.04-6.07c-1.54-0.98-3.1-1.94-4.67-2.88c-1.55-0.93-3.12-1.81-4.68-2.73
		c0,0,0,0,0,0c0,0-0.01,0,0,0.01c1.18,1.22,2.33,2.47,3.51,3.69c1.27,1.32,2.57,2.62,3.88,3.9c2.52,2.46,5.12,4.83,7.73,7.19
		c5.47,4.94,11.14,9.63,16.99,14.1c3.15,2.44,6.31,4.86,9.53,7.21c1.55,1.14,3.12,2.25,4.7,3.36c1.72,1.2,3.48,2.33,5.22,3.49
		c3.35,2.23,6.7,4.46,10.04,6.72c1.66,1.12,3.33,2.21,4.97,3.36c1.65,1.15,3.26,2.34,4.87,3.54c0,0,0.01,0,0.01-0.01
		c-2.18-1.83-4.33-3.69-6.42-5.62C351.04,336.04,348.95,334.08,346.85,332.13z"/>
	<path d="M245.35,255.69c3.62,3.44,7.43,6.68,11.43,9.68c1.9,1.43,3.86,2.77,5.83,4.1c1.99,1.35,3.98,2.69,6,4.01
		c2.06,1.34,4.16,2.63,6.21,3.98c2,1.31,4.03,2.6,6.06,3.87c0.01,0,0.01,0,0.01-0.01c-1.63-1.61-3.26-3.2-4.92-4.78
		c-1.79-1.7-3.53-3.44-5.31-5.15c-3.46-3.31-6.96-6.58-10.61-9.69c-3.79-3.23-7.85-6.16-12.01-8.91c-3.99-2.64-8.16-4.96-12.35-7.26
		c0,0,0,0,0,0c0,0-0.01,0,0,0.01C238.8,249.02,241.96,252.46,245.35,255.69z"/>
	<path d="M204.25,222.8c1.92,1.46,3.97,2.76,6.04,4c2.09,1.25,4.2,2.48,6.33,3.65c0.01,0,0.01,0,0.01-0.01
		c-1.63-1.82-3.32-3.59-5.03-5.34c-1.68-1.73-3.42-3.44-5.29-4.97c-3.68-3.02-7.85-5.35-12.11-7.44c0,0,0,0,0,0c0,0-0.01,0,0,0.01
		C197.22,216.38,200.44,219.9,204.25,222.8z"/>
	<path d="M490.52,445.36c-2.24-1.52-4.54-3-6.91-4.32c-0.11-0.08-0.22-0.11-0.33-0.11c-0.45,0-0.84,0.59-0.45,1.03
		c1.84,2.03,3.83,3.93,5.84,5.79c2.11,1.95,4.29,3.79,6.58,5.51c4.26,3.21,8.82,6.11,13.58,8.53c0.01,0,0.01,0,0.01-0.01
		c-3.46-4.09-7.34-7.85-11.45-11.29C495.21,448.64,492.89,446.97,490.52,445.36z"/>
	<path d="M621.15,552.43c2.19,1.21,4.43,2.31,6.63,3.5c0,0,0.01,0,0.01-0.01c-1.16-1.3-2.26-2.64-3.41-3.94
		c-1.27-1.44-2.57-2.86-3.88-4.27c-2.65-2.84-5.34-5.64-8.13-8.34c-5.68-5.52-11.69-10.7-17.99-15.49
		c-2.06-1.59-4.12-3.16-6.16-4.79c-2.3-1.83-4.59-3.67-6.89-5.5c-4.52-3.61-9.04-7.23-13.58-10.81c-2.48-1.96-4.95-3.93-7.47-5.84
		c-2.29-1.74-4.62-3.41-6.97-5.06c-4.72-3.31-9.5-6.5-14.39-9.57c-4.98-3.13-10.08-6.04-15.28-8.81c0,0,0,0,0,0c0,0-0.01,0,0,0.01
		c3.82,4.35,7.77,8.57,11.88,12.65c4.1,4.07,8.33,7.99,12.63,11.84c2.14,1.92,4.31,3.8,6.52,5.64c2.23,1.85,4.51,3.63,6.78,5.43
		c4.54,3.6,9.1,7.17,13.65,10.74c4.17,3.27,8.33,6.54,12.45,9.88c4.39,3.55,8.83,7.01,13.44,10.26c4.29,3.02,8.71,5.86,13.22,8.53
		C616.51,549.82,618.82,551.14,621.15,552.43z"/>
	<path d="M557.2,316.65c-0.55,0.18-1.1,0.39-1.67,0.47c-0.33,0.05-0.66,0.21-0.97,0.31c-1.39,0.45-2.78,0.91-4.17,1.39
		c-2.82,0.97-5.57,2.08-8.28,3.33c-1.23,0.57-2.46,1.16-3.67,1.78c-0.64,0.33-1.31,0.61-1.96,0.91c-0.76,0.36-1.52,0.72-2.27,1.09
		c-2.64,1.28-5.24,2.63-7.83,4.02c-2.55,1.37-5.08,2.77-7.58,4.23c-2.53,1.48-5.02,3.03-7.5,4.58c-2.53,1.58-5.04,3.2-7.53,4.86
		c-2.48,1.65-4.91,3.37-7.35,5.08c-2.38,1.66-4.78,3.31-7.12,5.04c-0.27,0.2-0.43,0.49-0.34,0.83c0,0.02,0.01,0.03,0.01,0.04
		c0,0,0,0,0,0c0.02,0.08,0.07,0.17,0.14,0.24c0.01,0.01,0.02,0.03,0.04,0.04c0.16,0.17,0.48,0.28,0.72,0.19
		c1.22-0.49,2.44-1.01,3.65-1.53c-0.04,0.02-0.09,0.04-0.13,0.06c2.68-1.13,5.34-2.31,8-3.47c2.75-1.2,5.47-2.42,8.18-3.71
		c5.33-2.53,10.61-5.16,15.76-8.02c5.12-2.84,10.15-5.84,15.03-9.06c2.42-1.6,4.92-3.07,7.25-4.8c2.34-1.74,4.61-3.57,6.83-5.46
		c0.38-0.32,0.76-0.65,1.15-0.97c0.12-0.09,0.23-0.18,0.33-0.3C556.32,317.38,556.77,317.02,557.2,316.65
		C557.21,316.65,557.21,316.65,557.2,316.65C557.21,316.65,557.21,316.65,557.2,316.65z"/>
	<path d="M586.23,298.34c-1.95,1.57-3.76,3.31-5.46,5.14c0,0,0,0.01,0,0.01c4.92-0.99,9.83-2.54,14.17-5.11
		c2.15-1.27,4.14-2.82,6.07-4.39c0.9-0.74,1.79-1.5,2.64-2.29c0.77-0.72,1.48-1.51,2.24-2.25c0,0,0-0.01,0-0.01
		c-0.96,0.24-1.92,0.46-2.89,0.68c-0.47,0.1-0.93,0.27-1.39,0.41c-0.63,0.2-1.27,0.39-1.89,0.6c-2.48,0.83-4.93,1.82-7.26,3.01
		C590.24,295.28,588.17,296.78,586.23,298.34z"/>
	<path d="M638.93,266.3c-1.9,1.08-3.72,2.33-5.53,3.55c-2.01,1.36-3.95,2.82-5.87,4.31c-3.51,2.72-6.85,5.67-10.01,8.8
		c0,0,0,0.01,0,0.01c4.25-1.03,8.42-2.31,12.52-3.82c2.18-0.8,4.34-1.69,6.47-2.63c2.11-0.93,4.21-1.9,6.25-2.97
		c1.94-1.02,3.79-2.21,5.65-3.36c2.13-1.32,4.13-2.84,6.11-4.37c3.45-2.67,6.56-5.71,9.56-8.86c0,0,0-0.01,0-0.01
		c-4.19,0.89-8.32,1.93-12.35,3.41c-2.25,0.82-4.5,1.74-6.66,2.78C643,264.13,640.93,265.17,638.93,266.3z"/>
	<path d="M326.32,447.38c3.27-1.32,6.5-2.76,9.61-4.43c3.11-1.66,6.06-3.66,8.92-5.72c2.86-2.06,5.62-4.27,8.29-6.58
		c0,0,0-0.01,0-0.01l0,0c-3.24,1.03-6.45,2.17-9.6,3.47c-3.3,1.36-6.56,2.85-9.67,4.6c-3.05,1.72-5.94,3.72-8.76,5.79
		c-2.64,1.93-5.24,3.94-7.71,6.08c-0.02,0.01-0.01,0.04,0.01,0.04C320.43,449.68,323.39,448.56,326.32,447.38z"/>
	<path d="M194.66,523.01c5.29-2.73,10.45-5.67,15.63-8.61c5.13-2.91,10.3-5.73,15.46-8.58c10.26-5.66,20.5-11.37,30.73-17.1
		c2.59-1.45,5.18-2.88,7.74-4.39c2.51-1.48,5-3.02,7.46-4.58c4.99-3.17,9.9-6.48,14.69-9.95c3.33-2.41,6.63-4.87,9.89-7.37
		c0,0,0-0.01,0-0.01c0,0,0,0,0,0c-5.44,2.07-10.83,4.26-16.18,6.55c-5.4,2.31-10.71,4.88-15.95,7.53
		c-5.28,2.67-10.41,5.61-15.57,8.49c-5.13,2.86-10.26,5.72-15.38,8.6c-10.23,5.75-20.42,11.57-30.7,17.23
		c-5.22,2.88-10.38,5.85-15.43,9.02c-4.94,3.09-9.81,6.3-14.59,9.63c-1.75,1.22-3.5,2.44-5.22,3.7c-0.79,0.58-1.58,1.18-2.36,1.79
		c-0.69,0.53-1.43,1.05-2.05,1.66c-0.26,0.26,0.11,0.61,0.35,0.48c0.51-0.13,1.02-0.35,1.52-0.52c0.62-0.22,1.24-0.45,1.85-0.69
		c1.39-0.53,2.77-1.1,4.14-1.68c2.69-1.13,5.36-2.31,8.01-3.53C184.06,528.23,189.4,525.72,194.66,523.01z"/>
	<path d="M144.38,547.26C144.38,547.26,144.38,547.26,144.38,547.26c-4.32,1.61-8.58,3.41-12.75,5.38
		c-2.08,0.98-4.11,2.05-6.09,3.23c-1.01,0.6-2,1.21-2.99,1.84c-1.01,0.64-2,1.34-3.07,1.88c-0.68,0.31-0.84,1.29-0.49,1.88
		c0.37,0.64,1.24,0.88,1.88,0.49c0.92-0.56,1.92-1.01,2.9-1.47c1.06-0.5,2.11-1.03,3.15-1.57c2.04-1.07,4.02-2.22,5.96-3.46
		C136.84,552.92,140.68,550.16,144.38,547.26C144.39,547.27,144.39,547.26,144.38,547.26z"/>
	<path d="M543.85,236.1c-3.97,4.25-7.83,8.61-11.58,13.07c-3.79,4.5-7.39,9.15-10.99,13.8c-3.61,4.66-7.22,9.32-10.84,13.97
		c-5.84,7.52-11.8,14.96-17.32,22.73c-2.68,3.77-5.27,7.6-7.81,11.46c-1.29,1.96-2.55,3.94-3.81,5.92c-1.19,1.86-2.41,3.71-3.5,5.63
		c-0.15,0.26,0.04,0.6,0.34,0.6c0.12,0,0.21-0.05,0.28-0.12l0,0c0.96-0.9,1.86-1.86,2.78-2.81c1.03-1.07,2.06-2.14,3.09-3.21
		c2.01-2.11,4.01-4.24,5.99-6.39c3.95-4.3,7.81-8.68,11.52-13.18c3.79-4.59,7.43-9.29,11.12-13.95c3.66-4.62,7.33-9.23,11-13.85
		c2.96-3.72,5.93-7.42,8.83-11.18c2.86-3.72,5.61-7.51,8.31-11.34c2.66-3.78,5.24-7.62,7.72-11.52c2.44-3.82,4.85-7.67,7.02-11.65
		c0.03-0.05-0.02-0.1-0.06-0.1c-0.02,0-0.03,0.01-0.05,0.02c-2.07,1.89-4.06,3.86-6.03,5.86
		C547.83,231.91,545.82,233.98,543.85,236.1z"/>
	<path d="M581.59,196.06c2.16-2.76,4.02-5.74,5.74-8.78c1.65-2.91,3.17-5.9,4.53-8.96c0.01-0.02-0.01-0.04-0.03-0.04
		c-0.01,0-0.01,0-0.02,0.01c-2.48,1.91-4.85,3.96-7.15,6.08c-2.47,2.28-4.84,4.69-6.99,7.28c-2.23,2.7-4.15,5.66-5.89,8.69
		c-1.73,3-3.22,6.14-4.58,9.33c0,0,0,0.01,0.01,0.01C572.5,205.73,577.51,201.28,581.59,196.06z"/>
	<path d="M606.32,161.8c1.99-1.94,3.95-3.93,5.75-6.05c1.88-2.22,3.51-4.66,5-7.15c1.44-2.4,2.64-4.94,3.92-7.42c0,0,0-0.01,0-0.01
		c0,0,0,0,0,0c-2.12,1.84-4.29,3.62-6.3,5.59c-2.08,2.04-4.02,4.22-5.76,6.57c-1.65,2.22-3.1,4.62-4.5,7.01
		c-1.45,2.46-2.9,4.93-4.3,7.41c0,0,0,0.01,0.01,0.01C602.21,165.79,604.27,163.8,606.32,161.8z"/>
	<path d="M347.98,486.09c-0.97,1.48-1.9,2.98-2.81,4.5c-0.48,0.8-0.94,1.61-1.4,2.42c-0.23,0.4-0.45,0.8-0.67,1.2
		c-0.17,0.31-0.31,0.66-0.52,0.95c-0.29,0.4,0.42,0.84,0.67,0.42c0.15-0.16,0.34-0.31,0.5-0.44c0.34-0.31,0.68-0.62,1.01-0.93
		c0.68-0.63,1.35-1.28,2.02-1.93c1.27-1.23,2.51-2.5,3.72-3.79c2.51-2.67,4.92-5.45,7.2-8.32c2.22-2.79,4.26-5.72,6.21-8.71
		c0.96-1.47,1.89-2.95,2.81-4.44c0.49-0.79,0.97-1.58,1.43-2.37c0.23-0.39,0.46-0.78,0.69-1.17c0.14-0.25,0.28-0.43,0.26-0.72
		c-0.03-0.35-0.33-0.58-0.62-0.58c-0.06,0-0.13,0.01-0.19,0.03c-0.12,0.03-0.22,0.08-0.32,0.17c-0.33,0.32-0.65,0.64-0.98,0.95
		c-0.66,0.64-1.32,1.29-1.97,1.95c-1.23,1.25-2.45,2.51-3.66,3.79c-2.48,2.63-4.87,5.33-7.09,8.19
		C352.07,480.11,349.96,483.06,347.98,486.09z"/>
	<path d="M328.99,514.1c0.79-1.33,1.57-2.66,2.35-3.99c0,0,0-0.01-0.01-0.01c0,0,0,0,0,0c-4.18,4.02-8.26,8.14-12.21,12.38
		c-3.99,4.27-7.85,8.66-11.65,13.1c-3.84,4.5-7.46,9.18-11.13,13.82c-3.64,4.61-7.3,9.21-10.96,13.8
		c-3.65,4.59-7.35,9.13-11.01,13.71c-3.64,4.56-7.29,9.12-10.94,13.68c-7.47,9.32-15.12,18.51-21.94,28.33
		c-2.89,4.16-5.66,8.41-8.31,12.73c-1.36,2.21-2.69,4.43-3.97,6.69c-1.14,1.99-2.21,4-3.29,6.02c0,0,0,0.01,0.01,0.01
		c0.84-0.75,1.69-1.48,2.52-2.23c1.13-1.03,2.23-2.08,3.33-3.14c2.14-2.03,4.22-4.12,6.28-6.23c4.12-4.22,8.1-8.57,11.93-13.06
		c3.95-4.62,7.65-9.45,11.36-14.26c3.58-4.64,7.14-9.3,10.71-13.94c5.32-6.92,10.65-13.84,15.96-20.78
		c3.45-4.45,6.9-8.91,10.36-13.36c3.72-4.77,7.52-9.49,11.14-14.34c3.53-4.72,6.93-9.55,10.23-14.44
		C322.96,523.85,326.06,519.02,328.99,514.1z"/>
	<path d="M469.51,296.04c1.27-2.61,2.46-5.25,3.57-7.93c2.05-4.98,3.86-10.06,5.53-15.18c0.81-2.5,1.56-5.01,2.32-7.52
		c0.4-1.32,0.77-2.65,1.15-3.97c0.18-0.61,0.35-1.23,0.52-1.85c0.14-0.5,0.31-1,0.38-1.51c0,0.02-0.01,0.04-0.01,0.06
		c0.08-0.48,0.23-0.94,0.36-1.41c0,0,0-0.01,0-0.01c0,0,0,0,0,0c-0.22,0.35-0.44,0.7-0.66,1.04c-0.62,0.79-1.11,1.68-1.64,2.53
		c-0.71,1.16-1.42,2.33-2.12,3.51c-1.35,2.26-2.68,4.53-3.97,6.82c-2.71,4.8-5.26,9.69-7.61,14.67c-1.23,2.62-2.34,5.3-3.4,8
		c-1,2.52-1.96,5.06-2.77,7.65c-0.81,2.6-1.58,5.22-2.33,7.84c-0.39,1.37-0.78,2.73-1.17,4.1c-0.37,1.31-0.7,2.62-1.04,3.93
		c-0.14,0.39,0.44,0.69,0.68,0.31c0.67-1.05,1.36-2.1,2.01-3.16c0.75-1.22,1.49-2.43,2.23-3.65c1.42-2.34,2.82-4.69,4.2-7.05
		C467.1,300.92,468.32,298.49,469.51,296.04z"/>
	<path d="M492.37,236.27c0.34-0.35,0.52-0.86,0.75-1.29c0.3-0.57,0.6-1.15,0.89-1.72c0.65-1.31,1.32-2.61,1.98-3.91
		c1.32-2.62,2.65-5.24,3.96-7.86c2.62-5.25,5.14-10.53,7.57-15.87c4.88-10.71,9.7-21.43,14.6-32.13c2.45-5.35,4.89-10.69,7.37-16.02
		c1.22-2.63,2.42-5.28,3.67-7.89c1.26-2.63,2.53-5.27,3.77-7.91c1.25-2.66,2.45-5.35,3.61-8.05c1.21-2.78,2.5-5.53,3.66-8.33
		c0.52-1.26,1.01-2.54,1.46-3.83c0.49-1.4,0.91-2.81,1.33-4.23c0.79-2.64,1.47-5.32,2.13-8c0.36-1.45,0.69-2.9,1.03-4.35
		c0.02-0.07,0.01-0.13,0-0.19c0.1-0.51,0.24-1.02,0.38-1.52c0,0,0,0,0,0c0,0,0,0,0,0c-0.27,0.44-0.55,0.89-0.85,1.31
		c-0.06,0.03-0.11,0.07-0.15,0.13c-2.58,3.82-5.14,7.65-7.47,11.62c-1.22,2.07-2.36,4.18-3.37,6.36c-0.49,1.05-0.93,2.13-1.4,3.19
		c-0.48,1.08-0.94,2.16-1.39,3.25c-3.51,7.76-6.56,15.72-9.8,23.6c-3.19,7.76-6.43,15.51-9.67,23.25
		c-4.29,10.13-8.59,20.26-12.83,30.42c-2.11,5.06-4.11,10.17-6.05,15.31c-0.96,2.52-1.89,5.06-2.84,7.59
		c-0.47,1.26-0.93,2.52-1.4,3.78c-0.23,0.6-0.45,1.21-0.66,1.82c-0.16,0.46-0.41,0.93-0.44,1.42c0,0,0,0,0,0
		C492.22,236.28,492.31,236.34,492.37,236.27z"/>
	<path d="M561.95,81.29c1.31-2.82,1.91-5.96,2.3-9.02c0.03-0.21,0.06-0.42,0.09-0.64c0,0,0-0.01,0-0.01c0,0,0,0,0,0
		c-0.92,1.16-1.86,2.28-2.72,3.49c-1,1.4-1.9,2.89-2.6,4.47c-1.29,2.93-1.93,6.12-2.23,9.29c0,0,0.01,0.01,0.01,0
		C558.84,86.59,560.65,84.07,561.95,81.29z"/>
	<path d="M395.3,457.85C395.3,457.85,395.3,457.85,395.3,457.85C395.3,457.85,395.29,457.85,395.3,457.85
		c-1.96,3.39-3.95,6.77-5.83,10.22c-1.9,3.48-3.73,7.01-5.4,10.61c-1.7,3.66-3.13,7.46-4.48,11.27c-0.65,1.82-1.28,3.63-1.87,5.47
		c-0.27,0.85-0.54,1.7-0.8,2.55c-0.26,0.86-0.47,1.74-0.75,2.59c-0.16,0.48,0.6,0.7,0.76,0.26c0.38-0.67,0.8-1.32,1.2-1.98
		c0.51-0.86,1.01-1.74,1.51-2.61c0.96-1.68,1.86-3.39,2.76-5.1c1.89-3.58,3.67-7.22,5.23-10.95
		C390.65,472.9,392.96,465.36,395.3,457.85z"/>
	<path d="M370.5,514.5c-6.24,9.75-12.02,19.81-17.14,30.2c-2.6,5.27-4.92,10.66-7.28,16.05c-2.36,5.39-4.76,10.77-7.1,16.17
		c-2.3,5.28-4.61,10.56-6.93,15.83c-2.41,5.47-4.88,10.92-7.11,16.46c-2.13,5.3-4.11,10.67-5.94,16.08
		c-0.93,2.74-1.81,5.5-2.64,8.27c-0.4,1.32-0.78,2.64-1.16,3.97c-0.38,1.31-0.78,2.63-1.07,3.97c-0.08,0.39,0.11,0.79,0.51,0.9
		c0.32,0.09,0.71-0.07,0.86-0.38c0.71-1.02,1.34-2.1,1.99-3.16c0.78-1.28,1.55-2.56,2.31-3.85c1.48-2.5,2.91-5.02,4.3-7.57
		c2.8-5.12,5.44-10.33,7.94-15.61c2.52-5.31,4.78-10.74,7.12-16.13c2.35-5.39,4.71-10.78,7.08-16.16c2.33-5.28,4.6-10.58,6.92-15.87
		c2.39-5.47,4.79-10.93,6.94-16.5C364.21,536.5,367.62,525.56,370.5,514.5C370.51,514.51,370.5,514.5,370.5,514.5
		C370.5,514.5,370.5,514.5,370.5,514.5z"/>
	<path d="M308.43,656.3c-1.39,1.98-2.72,4.02-3.95,6.1c-1.15,1.95-2.18,3.97-3.1,6.04c-1,2.23-1.8,4.56-2.52,6.89
		c-0.68,2.18-1.27,4.4-1.78,6.63c-0.06,0.12,0.13,0.22,0.22,0.1c1.3-1.9,2.53-3.85,3.69-5.84c1.22-2.09,2.37-4.25,3.32-6.48
		c0.9-2.1,1.68-4.24,2.35-6.43C307.35,661.01,307.94,658.66,308.43,656.3C308.44,656.3,308.44,656.3,308.43,656.3
		C308.44,656.3,308.44,656.3,308.43,656.3z"/>
	<path d="M409.11,470.95c-3.98,11.04-7.69,22.17-10.49,33.57c-1.41,5.74-2.57,11.54-3.75,17.33c-1.18,5.76-2.3,11.53-3.45,17.29
		c-0.93,4.65-1.9,9.3-2.81,13.95c-0.92,4.72-1.63,9.47-2.36,14.22c-0.72,4.74-1.34,9.51-1.84,14.28c-0.24,2.27-0.46,4.55-0.63,6.83
		c-0.16,2.22-0.27,4.44-0.37,6.67c-0.01,0.3,0.27,0.56,0.56,0.56c0.29,0,0.46-0.18,0.52-0.42c0.01,0,0.01,0,0.02,0.01
		c0.95-2.56,1.88-5.12,2.74-7.72c0.92-2.77,1.77-5.57,2.58-8.38c1.61-5.58,3.09-11.2,4.47-16.85c1.4-5.73,2.52-11.52,3.7-17.3
		c1.17-5.75,2.41-11.49,3.56-17.25c0.93-4.66,1.91-9.31,2.78-13.98c0.92-4.93,1.72-9.89,2.38-14.86
		C407.95,489.63,408.62,480.3,409.11,470.95C409.12,470.95,409.12,470.94,409.11,470.95C409.11,470.94,409.11,470.95,409.11,470.95z
		"/>
	<path d="M380.91,610.23c-2.46,5.96-4.54,12.11-5.92,18.41c-0.69,3.15-1.08,6.38-1.4,9.59c-0.31,3.13-0.5,6.26-0.56,9.41
		c-0.01,0.38,0.56,0.4,0.62,0.07c1.14-2.86,2.18-5.75,3.09-8.7c0.97-3.15,1.88-6.32,2.48-9.57c0.59-3.17,0.94-6.38,1.25-9.58
		C380.77,616.66,380.89,613.45,380.91,610.23C380.92,610.23,380.91,610.23,380.91,610.23C380.91,610.23,380.91,610.23,380.91,610.23
		z M373.41,646.7C373.41,646.71,373.41,646.71,373.41,646.7c0,0,0,0,0-0.01C373.41,646.7,373.41,646.7,373.41,646.7z"/>
	<path d="M369.44,666.87C369.44,666.87,369.44,666.87,369.44,666.87c-1.94,4.12-3.52,8.41-4.42,12.88
		c-0.49,2.42-0.71,4.91-0.88,7.37c-0.16,2.29-0.18,4.57-0.19,6.86c0,0.01,0.01,0.01,0.01,0c0.08-0.19,0.16-0.38,0.24-0.58
		c0,0.01-0.01,0.02-0.01,0.03c1.74-4.11,3.34-8.37,4.27-12.74C369.43,676.17,369.63,671.49,369.44,666.87
		C369.45,666.87,369.44,666.87,369.44,666.87z"/>
	<path d="M443.47,301.27C443.47,301.27,443.48,301.27,443.47,301.27c1.2-2.54,2.34-5.1,3.44-7.69c1.18-2.77,2.35-5.55,3.39-8.37
		c2.07-5.61,3.84-11.33,5.35-17.11c0.75-2.88,1.43-5.77,2.03-8.68c0.61-2.91,1.09-5.84,1.62-8.77c1.05-5.86,2.1-11.71,3.14-17.56
		c1.23-6.86,2.39-13.73,3.57-20.6c0.59-3.4,1.28-6.78,1.88-10.19c0.6-3.45,1.11-6.91,1.57-10.38c0.45-2.52,0.81-5.06,1.14-7.6
		c0.32-2.41,0.45-4.86,0.62-7.28c0.32-4.68,0.51-9.36,0.56-14.04c0-0.21-0.12-0.29-0.25-0.29c-0.16,0-0.34,0.12-0.36,0.27
		c-2.16,5.28-4.13,10.64-5.93,16.05c-0.45,1.34-0.88,2.69-1.3,4.03c-0.46,1.45-0.8,2.95-1.17,4.42c-0.32,1.29-0.62,2.59-0.97,3.88
		c-0.41,1.49-0.8,2.99-1.18,4.49c-1.45,5.75-2.61,11.57-3.96,17.35c-1.33,5.73-2.68,11.46-3.98,17.19
		c-1.31,5.78-2.62,11.57-3.93,17.35c-0.65,2.89-1.34,5.78-1.92,8.69c-0.58,2.93-1.07,5.87-1.51,8.83
		c-0.92,6.19-1.58,12.42-1.89,18.68c-0.14,2.89-0.14,5.79-0.13,8.68C443.29,295.49,443.36,298.38,443.47,301.27z"/>
	<path d="M474.59,147.61c0.61-2.34,1.24-4.68,1.92-7c0.73-2.47,1.44-4.95,2.02-7.45c1.13-4.84,1.66-9.81,1.97-14.77c0,0,0,0,0,0
		c0,0,0,0,0,0c-0.73,2.08-1.43,4.17-2.04,6.3c-0.6,2.11-1.14,4.24-1.57,6.39c-0.87,4.35-1.22,8.77-1.81,13.15c0,0,0,0,0,0
		C474.93,145.36,474.75,146.48,474.59,147.61C474.58,147.62,474.59,147.62,474.59,147.61z"/>
	<path d="M483.28,104.71c1.64-2.99,2.99-6.2,3.74-9.53c0.81-3.54,0.59-7.21,0.37-10.8c0,0,0,0,0,0c0,0,0,0,0,0
		c-1.52,3.07-2.98,6.15-3.74,9.51c-0.39,1.73-0.53,3.54-0.59,5.31C483,101.03,483.09,102.87,483.28,104.71
		C483.27,104.71,483.28,104.71,483.28,104.71z"/>
	<path d="M378.01,281.4c-1.19-2.68-2.58-5.29-3.96-7.87c-1.37-2.56-2.8-5.09-4.26-7.6c-2.96-5.07-6.06-10.07-9.31-14.97
		c-0.58-0.87-1.17-1.73-1.78-2.57c0-0.01-0.01-0.01-0.01-0.01c-0.01,0-0.01,0-0.01,0.01c0,0,0,0.01,0,0.01
		c0.69,2.54,1.52,5.03,2.33,7.53c0.91,2.8,1.88,5.59,2.9,8.36c2.05,5.59,4.22,11.14,6.65,16.58c2.4,5.38,5.3,10.54,8.27,15.63
		c2.99,5.13,6.21,10.14,9.41,15.15c0.7,1.09,1.4,2.17,2.11,3.25c0,0,0.01,0,0.01,0c-1.78-5.58-3.67-11.14-5.62-16.67
		C382.7,292.54,380.46,286.92,378.01,281.4z"/>
	<path d="M335.55,201.43c0.43,1.42,0.9,2.83,1.4,4.23c1.03,2.88,2.19,5.74,3.55,8.47c1.3,2.61,2.82,5.11,4.33,7.59
		c1.55,2.54,3.12,5.07,4.74,7.56c0,0,0.01,0,0.01,0c-0.86-2.7-1.79-5.38-2.73-8.05c-1.01-2.86-2.08-5.7-3.28-8.49
		c-1.21-2.79-2.73-5.46-4.29-8.06c-0.77-1.29-1.59-2.55-2.43-3.79c-0.35-0.52-0.71-1.04-1.07-1.56c-0.16-0.22-0.31-0.58-0.58-0.69
		c-0.03-0.01-0.05-0.02-0.08-0.02c-0.15,0-0.28,0.15-0.28,0.29c-0.02,0.23,0.13,0.54,0.19,0.73
		C335.19,200.25,335.37,200.84,335.55,201.43z"/>
	<path d="M289.91,110.89c1.49,4.63,3.27,9.13,5.2,13.6c1.11,2.64,2.25,5.27,3.47,7.86c1.22,2.62,2.54,5.19,3.85,7.76
		c2.63,5.14,5.12,10.35,7.65,15.54c1.27,2.62,2.53,5.24,3.88,7.82c1.34,2.58,2.76,5.12,4.23,7.63c2.83,4.86,5.89,9.59,8.95,14.31
		c2.31,3.57,4.49,7.22,6.73,10.84c0,0,0.01,0,0.01,0c-0.92-2.63-1.88-5.24-2.78-7.87c-0.89-2.6-1.74-5.22-2.6-7.84
		c-1.76-5.35-3.6-10.66-5.66-15.9c-2.21-5.61-4.84-11.05-7.38-16.52c-1.22-2.62-2.43-5.24-3.64-7.86c-1.23-2.66-2.39-5.34-3.58-8.01
		c-1.39-3.12-2.91-6.2-4.48-9.23c-1.6-3.08-3.23-6.14-4.96-9.14c-1.71-2.96-3.58-5.83-5.52-8.65c-1.84-2.68-3.75-5.3-5.76-7.86
		c-0.12-0.16-0.28-0.22-0.43-0.22c-0.44,0-0.88,0.53-0.68,0.97C287.36,102.43,288.56,106.69,289.91,110.89z"/>
	<path d="M481.75,506.97c-0.34-1.32-0.58-2.67-0.9-4c-0.39-1.6-0.81-3.19-1.27-4.77c-0.98-3.38-2.18-6.7-3.6-9.92
		c-1.36-3.1-3.15-6.04-5.05-8.84c-1.86-2.74-3.89-5.38-6.04-7.9c0,0,0,0,0,0c0,0,0,0,0,0.01c1.21,6.53,3.05,12.94,5.89,18.96
		c1.4,2.98,3.2,5.79,5.04,8.52c0.94,1.39,1.91,2.75,2.92,4.09c0.86,1.15,1.79,2.26,2.67,3.4c-0.01-0.01-0.01-0.02-0.02-0.03
		C481.5,506.65,481.63,506.81,481.75,506.97C481.75,506.98,481.75,506.98,481.75,506.97z"/>
	<path d="M565.6,681.52c-0.41-1.34-0.85-2.67-1.29-4c-0.9-2.74-1.84-5.46-2.82-8.17c-1.96-5.43-4.07-10.8-6.31-16.12
		c-1.23-2.92-2.49-5.83-3.82-8.71c-1.25-2.7-2.54-5.38-3.83-8.06c-2.51-5.24-5.08-10.45-7.65-15.65
		c-5.19-10.49-10.43-20.96-15.56-31.48c-2.6-5.34-5.2-10.68-7.77-16.03c-1.28-2.65-2.53-5.31-3.85-7.95
		c-1.3-2.6-2.65-5.19-4.01-7.76c-2.4-4.51-4.91-8.96-7.53-13.35c-1.32-2.2-2.66-4.38-4-6.58c-1.32-2.16-2.61-4.34-3.9-6.52
		c0,0,0,0,0,0c0,0-0.01,0,0,0c0.98,2.68,1.97,5.35,2.92,8.04c0.97,2.74,1.94,5.48,2.95,8.21c2.02,5.51,4.29,10.94,6.63,16.32
		c2.36,5.41,4.89,10.73,7.4,16.06c2.52,5.37,5.02,10.74,7.5,16.13c4.9,10.66,9.72,21.35,14.66,32c2.46,5.3,4.9,10.61,7.4,15.89
		c2.54,5.37,5.23,10.65,8.09,15.86c2.44,4.46,4.99,8.85,7.64,13.19c1.33,2.18,2.69,4.34,4.08,6.48c0.65,1,1.3,2,1.96,3
		c0.35,0.52,0.69,1.03,1.05,1.55c0.21,0.31,0.42,0.66,0.67,0.95c0.07,0.18,0.36,0.08,0.33-0.14c-0.07-0.47-0.26-0.95-0.39-1.4
		C565.97,682.7,565.79,682.11,565.6,681.52z"/>
	<path d="M583.38,717.21c-0.72-2.11-1.54-4.22-2.54-6.21c-1.99-3.97-4.54-7.67-7.29-11.15c0,0,0,0,0,0c0,0-0.01,0,0,0.01
		c0.97,4.33,2.28,8.56,4.04,12.63c0.88,2.03,2,3.95,3.17,5.83c1.1,1.78,2.28,3.5,3.5,5.19c0,0,0.01,0,0.01-0.01
		c0.08,0.15,0.22,0.26,0.43,0.26c0.33,0,0.58-0.32,0.49-0.64C584.64,721.12,584.05,719.15,583.38,717.21z"/>
	<path d="M377.29,329.42C377.29,329.43,377.3,329.42,377.29,329.42c-3-5.03-6.13-9.97-9.28-14.89c-1.57-2.46-3.17-4.91-4.79-7.34
		c-1.57-2.37-3.25-4.67-4.9-6.99c-6.92-9.71-14.56-18.87-21.93-28.23c-5.71-7.25-11.39-14.52-17.04-21.82
		c-2.65-3.52-5.28-7.06-8.01-10.52c-2.7-3.41-5.51-6.72-8.4-9.96c-2.8-3.14-5.72-6.18-8.7-9.16c-2.93-2.93-5.89-5.83-8.94-8.63
		c-0.07-0.07-0.16-0.1-0.24-0.1c-0.28,0-0.52,0.34-0.3,0.58c2.71,4.9,5.6,9.71,8.6,14.44c3.08,4.87,6.36,9.59,9.8,14.21
		c3.65,4.89,7.61,9.52,11.42,14.29c3.62,4.53,7.23,9.07,10.83,13.62c7.32,9.25,14.48,18.63,21.83,27.85
		c1.83,2.29,3.71,4.54,5.63,6.77c1.85,2.16,3.7,4.33,5.63,6.43c3.98,4.32,8.04,8.57,12.14,12.78
		C372.83,324.99,375.05,327.22,377.29,329.42z"/>
	<path d="M266.2,189.99c2.49,2.7,5.05,5.34,7.66,7.92c0,0,0.01,0,0.01-0.01c-1.89-3.14-3.85-6.23-5.88-9.29
		c-2.04-3.07-4.09-6.14-6.3-9.09c-2.28-3.02-4.74-5.92-7.29-8.72c-2.46-2.69-5.07-5.21-7.82-7.6c0,0,0,0,0,0c0,0-0.01,0,0,0.01
		c3.41,6.59,7.61,12.74,12.28,18.5C261.17,184.58,263.7,187.29,266.2,189.99z"/>
	<path d="M589.19,595.07c-3.09-4.93-6.35-9.75-9.73-14.5c-3.55-4.99-7.37-9.77-11.19-14.56c-3.64-4.56-7.18-9.21-10.75-13.82
		c-1.78-2.3-3.57-4.61-5.35-6.91c-3.55-4.66-7.11-9.3-10.62-13.99c-3.56-4.75-7.14-9.48-10.73-14.2
		c-3.81-4.99-7.54-10.05-11.46-14.96c-3.71-4.66-7.66-9.13-11.77-13.45c-5.85-6.14-12.15-11.83-18.63-17.29c0,0,0,0,0,0
		c0,0-0.01,0,0,0.01c2.61,5.24,5.37,10.39,8.29,15.46c2.96,5.13,6.24,10.1,9.67,14.93c3.64,5.12,7.59,9.99,11.55,14.87
		c3.77,4.64,7.5,9.3,11.3,13.91c5.26,6.38,10.48,12.78,15.69,19.2c5.3,6.53,10.51,13.15,15.76,19.72c2.68,3.48,5.34,6.98,8.11,10.39
		c2.98,3.67,6.1,7.23,9.28,10.73c3.04,3.35,6.15,6.62,9.35,9.82c1.64,1.64,3.29,3.26,4.97,4.85c1.57,1.48,3.18,2.91,4.76,4.37
		c0,0,0.01,0,0.01-0.01c-1.33-2.37-2.6-4.77-3.97-7.12C592.24,600.01,590.74,597.53,589.19,595.07z"/>
	<path d="M627.66,642.77c-3.93-5.27-9.07-9.63-14.45-13.37c0,0,0,0,0,0c0,0,0,0,0,0.01c1.12,2.89,2.41,5.72,3.86,8.47
		c1.57,2.97,3.4,5.76,5.46,8.4c1.96,2.51,4.31,4.74,6.67,6.85c2.25,2.02,4.66,3.86,7.06,5.7c0,0-0.01,0-0.01-0.01
		c0.08,0.06,0.15,0.12,0.23,0.18c0,0,0.01,0,0.01-0.01c-1.23-2.73-2.43-5.45-3.8-8.11C631.23,648.05,629.55,645.31,627.66,642.77z"
		/>
	<path d="M625.67,434.07c-5.62-2.01-11.36-3.63-17.09-5.26c-2.87-0.82-5.77-1.57-8.68-2.26c-2.9-0.69-5.83-1.29-8.74-1.92
		c-5.8-1.26-11.6-2.48-17.4-3.73c-11.57-2.49-23.12-5.05-34.66-7.65c-2.9-0.65-5.8-1.32-8.72-1.87c-2.91-0.56-5.84-1.04-8.77-1.48
		c-5.87-0.87-11.79-1.63-17.71-2.06c-1.19-0.09-2.38-0.18-3.58-0.29c-0.64-0.06-1.29-0.12-1.93-0.17c-0.35-0.03-0.74-0.12-1.11-0.12
		c-0.16,0-0.32,0.02-0.47,0.07c-0.25,0.03-0.43,0.39-0.21,0.62c0.34,0.36,0.85,0.45,1.3,0.62c0.62,0.24,1.25,0.48,1.87,0.72
		c1.36,0.51,2.71,1.05,4.06,1.58c2.72,1.09,5.49,2.07,8.26,3.04c5.56,1.95,11.19,3.73,16.88,5.26c2.87,0.77,5.77,1.43,8.67,2.11
		c2.9,0.69,5.8,1.37,8.7,2.06c5.73,1.37,11.46,2.74,17.18,4.13c5.73,1.39,11.45,2.8,17.17,4.22c5.78,1.43,11.55,2.93,17.37,4.22
		c2.93,0.65,5.87,1.22,8.82,1.74c2.95,0.52,5.9,1.07,8.87,1.52c3.13,0.47,6.26,0.94,9.4,1.29c2.83,0.31,5.66,0.54,8.5,0.68
		c1.36,0.07,2.71,0.13,4.07,0.17c0.69,0.02,1.39,0.03,2.08,0.04c0.21,0,0.41,0,0.62,0c0.36,0,0.73-0.01,1.09,0.01
		c0.33,0.07,0.52-0.44,0.16-0.61l0,0C636.46,438.24,631.11,436.01,625.67,434.07z"/>
	<path d="M676.65,445.71c-1.65-0.42-3.35-0.64-5.03-0.87c-1.6-0.21-3.22-0.34-4.84-0.41c-0.88-0.04-1.76-0.06-2.64-0.06
		c-2.23,0-4.47,0.12-6.69,0.33c0,0-0.01,0.01,0,0.01c2.61,1.59,5.31,3.02,8.11,4.24c3,1.31,6.11,2.5,9.32,3.19
		c1.64,0.36,3.32,0.56,4.99,0.75c1.58,0.18,3.18,0.28,4.77,0.33c2.9,0.1,5.78-0.03,8.66-0.25c0,0,0.01-0.01,0-0.01
		c-2.45-1.44-4.94-2.78-7.53-3.94C682.83,447.7,679.78,446.51,676.65,445.71z"/>
	<path d="M353.99,374.75c-2.73-0.83-5.45-1.68-8.17-2.55c-2.66-0.86-5.32-1.72-7.99-2.56c-5.6-1.76-11.21-3.43-16.87-4.98
		c-5.67-1.55-11.4-2.85-17.12-4.22c-5.68-1.37-11.36-2.76-17.04-4.12c-11.49-2.75-22.96-5.55-34.45-8.31
		c-5.65-1.36-11.31-2.72-16.96-4.1c-5.72-1.39-11.48-2.59-17.26-3.66c-5.01-0.92-10.05-1.69-15.1-2.33
		c-4.85-0.61-9.7-1.08-14.59-1.33c0,0,0,0,0,0c0,0,0,0.01,0,0.01c10.51,4.46,21.43,7.95,32.47,10.85c2.84,0.75,5.69,1.46,8.55,2.13
		c2.83,0.67,5.67,1.27,8.51,1.88c5.72,1.25,11.43,2.52,17.14,3.77c11.52,2.54,23.05,5.09,34.57,7.6c5.74,1.25,11.48,2.5,17.21,3.79
		c2.87,0.64,5.73,1.3,8.62,1.88c2.89,0.59,5.78,1.13,8.68,1.64c4.07,0.72,8.15,1.38,12.24,1.99c3.89,0.59,7.79,1.17,11.69,1.69
		c0,0,0,0,0,0c0,0,0.01,0,0.01,0c0.02,0,0.04,0.01,0.06,0.01c-0.01,0-0.02,0-0.02,0C350.12,374.12,352.05,374.45,353.99,374.75
		C354,374.76,354,374.75,353.99,374.75z"/>
	<path d="M348.13,373.85c0.01,0,0.03,0,0.04,0.01C348.16,373.85,348.15,373.85,348.13,373.85
		C348.14,373.85,348.14,373.85,348.13,373.85z"/>
	<path d="M153.25,328.59C153.25,328.59,153.26,328.59,153.25,328.59c0.01,0.01,0.02,0.01,0.03,0.01c4.44,1.88,9.13,3.22,13.86,4.17
		c2.49,0.5,5.01,0.86,7.52,1.27c2.46,0.4,4.93,0.77,7.4,1.08c0,0,0.01-0.01,0-0.01c-2.34-0.8-4.71-1.54-7.08-2.26
		c-2.42-0.73-4.84-1.48-7.28-2.14c-2.45-0.66-4.96-1.16-7.46-1.56c-2.3-0.37-4.61-0.66-6.93-0.78c0,0-0.01,0-0.01,0
		C153.18,328.38,153.17,328.54,153.25,328.59L153.25,328.59z"/>
	<path d="M138.94,324.2c-1.17-0.39-2.34-0.77-3.52-1.13c-2.3-0.7-4.64-1.19-7.01-1.59c-2.44-0.41-4.93-0.68-7.41-0.75
		c0,0-0.01,0-0.01,0c-0.2,0-0.3,0.16-0.29,0.31c0,0.13,0.07,0.27,0.22,0.3c2.85,1.28,5.82,2.28,8.83,3.08
		c1.54,0.41,3.09,0.76,4.66,1.03c1.46,0.25,2.94,0.45,4.41,0.64c3.48,0.55,6.97,1.05,10.46,1.47c0.01,0,0.01-0.01,0-0.01
		c-2.33-0.81-4.68-1.56-7.02-2.32C141.15,324.89,140.03,324.56,138.94,324.2z"/>
	<path d="M531.24,374.66c0.13-0.05,0.26-0.1,0.39-0.15c0,0,0-0.01,0-0.01c-0.14-0.01-0.27-0.01-0.41-0.02
		c-0.02-0.03-0.06-0.05-0.11-0.05c-1.6-0.1-3.21-0.14-4.81-0.14c-1.47,0-2.94,0.04-4.4,0.09c-3.39,0.13-6.77,0.46-10.12,1
		c-3.16,0.51-6.29,1.32-9.37,2.19c-3.12,0.88-6.21,1.88-9.26,2.98c0,0,0,0.01,0,0.01c6.48,0.22,13.03,0.08,19.46-0.83
		c3.17-0.45,6.3-1.17,9.39-2.01c3.1-0.84,6.17-1.82,9.16-2.99c0,0,0,0,0,0C531.19,374.72,531.22,374.69,531.24,374.66z"/>
	<path d="M598.77,367.81c5.84-0.83,11.69-1.68,17.53-2.53c2.69-0.39,5.38-0.78,8.07-1.17c4.95-0.64,9.9-1.27,14.85-1.85
		c5.49-0.65,10.98-1.32,16.41-2.36c2.48-0.47,4.96-1,7.42-1.56c1.24-0.28,2.49-0.55,3.74-0.84c1.26-0.29,2.54-0.52,3.8-0.84
		c1.24-0.31,2.46-0.74,3.68-1.14c1.21-0.4,2.42-0.83,3.62-1.26c2.41-0.87,4.79-1.78,7.2-2.67c0.11,0,0.22-0.02,0.32-0.06
		c0.73-0.28,1.45-0.59,2.15-0.92c0.66-0.3,0.23-1.27-0.38-1.23c-0.69-0.08-1.39-0.16-2.09-0.19c-0.12-0.01-0.23,0.01-0.34,0.04
		c-3.94-0.16-7.89-0.44-11.84-0.44c-1.66,0-3.31,0.05-4.96,0.17c-0.64,0.05-1.29,0.14-1.93,0.22c-0.68,0.09-1.38,0.12-2.07,0.18
		c-1.51,0.14-3.02,0.27-4.52,0.43c-3.18,0.32-6.35,0.7-9.51,1.15c-5.72,0.82-11.37,2.05-17.04,3.13c-2.88,0.55-5.75,1.09-8.63,1.62
		c-2.89,0.54-5.8,1.01-8.7,1.5c-5.81,0.98-11.61,1.96-17.42,2.96c-5.75,0.99-11.51,1.95-17.24,3.05c-5.72,1.09-11.4,2.35-17.05,3.73
		c-2.77,0.68-5.54,1.4-8.3,2.14c-2.83,0.75-5.66,1.54-8.47,2.39c-0.26,0.08-0.52,0.15-0.77,0.24c-0.55,0.2-0.34,1.06,0.19,0.94
		c1.27,0.04,2.56-0.06,3.83-0.11c1.53-0.05,3.07-0.12,4.6-0.18c2.85-0.11,5.7-0.28,8.55-0.48c5.79-0.4,11.56-0.95,17.32-1.63
		c3.12-0.37,6.22-0.83,9.33-1.25C592.99,368.62,595.88,368.22,598.77,367.81z M685.58,350.08
		C685.58,350.08,685.58,350.08,685.58,350.08c-0.01,0-0.02,0.01-0.03,0.01C685.56,350.08,685.57,350.08,685.58,350.08z"/>
	<path d="M327.8,405.9c-0.09-0.02-0.19-0.03-0.28-0.03c-0.08,0-0.16,0.01-0.24,0.02c-0.55,0.03-1.1,0.05-1.65,0.08
		c-1.01,0.05-2.03,0.15-3.04,0.24c-2.18,0.19-4.34,0.5-6.49,0.88c-4.14,0.73-8.27,1.76-12.23,3.17c-0.06,0.02-0.04,0.12,0.02,0.1
		c4.19,0.12,8.4-0.18,12.55-0.74c2.06-0.28,4.09-0.63,6.12-1.07c1-0.21,1.99-0.46,2.98-0.7c0.54-0.13,1.08-0.28,1.62-0.43
		c0.21-0.06,0.43-0.12,0.64-0.17c0.2-0.05,0.33-0.2,0.47-0.34c0.17-0.17,0.21-0.45,0.08-0.65c-0.04-0.07-0.11-0.14-0.19-0.19
		c0,0,0,0,0,0C328.05,406,327.93,405.95,327.8,405.9z"/>
	<path d="M268.36,414.24c-2.58,0.34-5.13,0.91-7.64,1.58c-1.17,0.31-2.33,0.66-3.48,1.04c-0.51,0.17-1.02,0.34-1.53,0.52
		c-0.4,0.14-0.82,0.26-1.19,0.47c-0.33,0.13-0.66,0.25-0.99,0.37c-0.01,0,0,0.01,0,0.01c0.35,0.01,0.7,0.03,1.05,0.05
		c0.31,0.06,0.62,0.07,0.94,0.07c0.53,0.01,1.07,0.03,1.6,0.04c1.2,0.01,2.4-0.01,3.6-0.06c2.59-0.12,5.17-0.37,7.73-0.78
		c2.44-0.39,4.85-1.03,7.23-1.7c2.31-0.65,4.59-1.39,6.86-2.17c0.01,0,0-0.01,0-0.01c-1.13-0.03-2.27-0.04-3.41-0.04
		C275.54,413.62,271.93,413.77,268.36,414.24z"/>
	<path d="M124.12,441.78c5.86-0.13,11.73-0.49,17.56-1.1c3.27-0.34,6.54-0.77,9.79-1.26c2.87-0.43,5.73-0.95,8.6-1.44
		c5.71-0.97,11.4-2.01,17.1-3.03c4.74-0.85,9.47-1.84,14.18-2.83c4.7-0.99,9.33-2.24,13.96-3.5c4.56-1.24,9.11-2.48,13.67-3.7
		c4.32-1.15,8.65-2.23,12.99-3.3c0.01,0,0-0.01,0-0.01c-5.45,0.38-10.9,0.73-16.36,0.99c-5.76,0.28-11.53,0.52-17.29,0.85
		c-5.85,0.34-11.66,0.99-17.48,1.69c-6.11,0.73-12.2,1.57-18.29,2.41c-4.72,0.65-9.45,1.28-14.15,2.05
		c-4.79,0.78-9.55,1.78-14.26,2.94c-4.67,1.15-9.31,2.41-13.91,3.85c-2.22,0.69-4.43,1.42-6.62,2.19c-1.1,0.38-2.19,0.78-3.28,1.18
		c-1.04,0.39-2.08,0.83-3.14,1.17c-0.35,0.11-0.21,0.57,0.08,0.57c0,0,0,0,0,0c1.22,0,2.44,0.12,3.66,0.17
		c1.5,0.06,2.99,0.11,4.49,0.13C118.32,441.87,121.22,441.85,124.12,441.78z"/>
	<path d="M173.87,478.83c5.57-0.64,11.09-1.89,16.55-3.15c5.67-1.3,11.29-2.8,16.86-4.48c5.68-1.71,11.28-3.66,16.88-5.61
		c5.6-1.95,11.21-3.9,16.81-5.84c5.55-1.92,11.11-3.81,16.65-5.74c5.53-1.92,11.05-3.85,16.58-5.78c5.62-1.96,11.27-3.85,16.89-5.79
		c2.77-0.96,5.54-1.92,8.3-2.89c2.75-0.96,5.52-1.89,8.26-2.89c6.55-2.37,12.97-5.07,19.34-7.9c3.08-1.37,6.15-2.79,9.19-4.25
		c1.56-0.75,3.11-1.51,4.64-2.3c1.5-0.77,3.03-1.49,4.55-2.22c0.01,0,0-0.01,0-0.01c0,0,0,0,0,0c-5.61,1.19-11.24,2.27-16.83,3.58
		c-5.62,1.32-11.21,2.78-16.75,4.39c-5.6,1.63-11.1,3.55-16.62,5.41c-5.61,1.89-11.22,3.79-16.81,5.72
		c-11.11,3.83-22.27,7.52-33.38,11.33c-5.6,1.92-11.21,3.82-16.82,5.71c-5.62,1.9-11.27,3.71-16.85,5.73
		c-6.65,2.41-13.22,5.03-19.68,7.92c-3.01,1.35-5.99,2.74-8.95,4.19c-3,1.46-5.98,2.99-8.83,4.72c0,0,0,0,0,0
		C173.78,478.73,173.8,478.84,173.87,478.83z"/>
	<path d="M135.13,494.86c1.7-0.62,3.35-1.38,4.99-2.15c1.65-0.77,3.28-1.59,4.9-2.41c1.55-0.79,3.08-1.64,4.62-2.45
		c1.62-0.85,3.26-1.63,4.89-2.46c0,0,0-0.01,0-0.01c-1.71,0.33-3.41,0.7-5.12,1.01c-1.75,0.32-3.52,0.62-5.27,0.93
		c-1.71,0.3-3.42,0.66-5.12,1.03c-1.79,0.39-3.57,0.8-5.31,1.34c-3.5,1.09-6.9,2.58-10.19,4.19c-3.1,1.52-6.07,3.36-8.99,5.2
		c0,0,0,0.01,0,0.01c3.42-0.34,6.85-0.72,10.22-1.39C128.27,497.01,131.76,496.09,135.13,494.86z"/>
	<path d="M97.69,504.54c-0.01,0-0.03,0-0.04,0c-6,0.64-12.01,1.65-17.77,3.52c-3.02,0.98-5.95,2.31-8.79,3.71
		c-2.67,1.32-5.28,2.78-7.81,4.36c0,0,0.01,0.01,0.01,0.01c-0.39,0.26-0.3,0.99,0.25,0.93c2.97-0.31,5.92-0.76,8.85-1.34
		c3.03-0.6,6.05-1.34,8.96-2.36c3-1.05,5.91-2.39,8.74-3.82c2.65-1.34,5.21-2.82,7.73-4.38c0,0,0-0.01-0.01-0.01
		C98.06,504.99,98.02,504.54,97.69,504.54z"/>
	<path d="M565.66,347.33c5.6-1.97,11.21-3.9,16.83-5.83c5.61-1.93,11.24-3.82,16.81-5.86c5.48-2,10.88-4.2,16.32-6.32
		c5.44-2.12,10.8-4.46,16.04-7.04c0.76-0.37,1.51-0.76,2.26-1.15c0.02,0,0.01-0.03-0.01-0.03c0,0,0,0,0,0
		c-5.58,1.04-11.12,2.37-16.58,3.91c-1.32,0.37-2.63,0.76-3.94,1.15c-1.41,0.43-2.82,0.82-4.24,1.23c-2.84,0.81-5.67,1.66-8.49,2.53
		c-5.66,1.76-11.26,3.69-16.87,5.61c-5.62,1.92-11.25,3.83-16.88,5.74c-5.54,1.88-11.1,3.71-16.66,5.57
		c-5.59,1.87-11.21,3.69-16.76,5.7c-2.81,1.02-5.59,2.16-8.36,3.28c-2.82,1.15-5.63,2.32-8.43,3.52
		c-5.36,2.29-10.68,4.66-15.99,7.08c-0.94,0.43-1.88,0.86-2.82,1.3c-0.01,0,0,0.01,0,0.01c11.53-2.66,23.02-5.54,34.36-8.9
		c5.67-1.68,11.24-3.72,16.82-5.68C554.62,351.22,560.14,349.28,565.66,347.33z"/>
	<path d="M672.37,305.69c-3.54,1.19-7,2.66-10.4,4.18c-3.41,1.52-6.72,3.24-9.97,5.06c-0.01,0,0,0.01,0,0.01
		c7.28-1.1,14.54-2.71,21.51-5.12c3.52-1.21,6.99-2.64,10.38-4.19c3.15-1.43,6.2-3.04,9.19-4.77c0.01,0,0-0.01,0-0.01c0,0,0,0,0,0
		c-0.1,0.01-0.21,0.03-0.31,0.04c0.01,0,0.01,0,0.02,0C685.84,301.8,678.99,303.47,672.37,305.69z"/>
	<path d="M726.14,289.52c-1.01,0.08-2.03,0.15-3.04,0.24c-0.47,0.04-0.93,0.1-1.39,0.19c-0.18,0.02-0.35,0.07-0.52,0.14
		c-0.31,0.11-0.63,0.19-0.95,0.27c-2.39,0.58-4.77,1.25-7.09,2.06c-4.4,1.52-8.63,3.6-12.68,5.9c0,0,0,0.01,0,0.01
		c3.29-0.47,6.53-1.12,9.75-1.96c3.36-0.87,6.64-2.08,9.81-3.5c0.51-0.21,1.02-0.43,1.52-0.65c0.82-0.26,1.51-0.67,2.23-1.13
		C724.57,290.58,725.35,290.05,726.14,289.52C726.14,289.53,726.14,289.52,726.14,289.52z"/>
	<path d="M583.9,260.4c-4.87,3.16-9.63,6.49-14.26,9.99c-2.57,1.94-5.12,3.9-7.63,5.91c-2.33,1.87-4.61,3.82-6.89,5.76
		c-2.28,1.93-4.57,3.86-6.85,5.8c-2.22,1.88-4.48,3.71-6.71,5.59c-4.58,3.85-9.16,7.7-13.75,11.55c-2.26,1.9-4.59,3.73-6.89,5.59
		c-1.1,0.89-2.18,1.81-3.3,2.67c-1.2,0.92-2.38,1.85-3.54,2.83c-2.25,1.9-4.51,3.79-6.71,5.75c-2.19,1.96-4.34,3.97-6.46,6
		c-2.12,2.04-4.21,4.1-6.32,6.15c-2.1,2.06-4.04,4.28-6.03,6.44c-1.56,1.69-3.09,3.4-4.63,5.1c-0.44,0.33,0.01,1.2,0.59,0.85
		c1.1-0.67,2.22-1.32,3.32-2c1.25-0.77,2.5-1.55,3.75-2.32c1.2-0.74,2.4-1.48,3.59-2.22c1.28-0.79,2.52-1.64,3.77-2.48
		c4.84-3.29,9.61-6.7,14.25-10.28c2.51-1.94,4.97-3.94,7.43-5.94c1.07-0.87,2.08-1.83,3.14-2.72c1.18-0.99,2.35-1.98,3.53-2.96
		c2.27-1.9,4.51-3.83,6.81-5.69c2.33-1.89,4.65-3.78,6.98-5.67c2.33-1.89,4.65-3.78,6.98-5.67c2.26-1.84,4.49-3.7,6.76-5.53
		c4.66-3.76,9.39-7.46,13.94-11.36c8.87-7.59,17.23-15.77,25.01-24.48c0.78-0.87,1.58-1.71,2.33-2.62c0.67-0.81,1.31-1.65,1.95-2.48
		c0,0,0-0.01-0.01-0.01c0,0,0,0,0,0c-1.13,0.57-2.25,1.14-3.36,1.75c-1.21,0.66-2.36,1.42-3.54,2.14
		C588.71,257.32,586.3,258.84,583.9,260.4z"/>
	<path d="M618,232.72c-2.8,2.95-5.42,6.07-7.91,9.28c0,0,0,0.01,0.01,0.01c6.61-3.35,12.96-7.25,18.87-11.73
		c3.02-2.29,5.79-4.86,8.42-7.58c2.55-2.64,4.99-5.41,7.23-8.32c0.55-0.71,1.05-1.46,1.59-2.19c0,0,0-0.01,0-0.01c0,0,0,0,0,0
		c-0.66,0.31-1.34,0.59-1.99,0.91c-0.83,0.4-1.64,0.83-2.45,1.27c-1.73,0.95-3.43,1.93-5.11,2.96c-3.5,2.13-6.84,4.49-10.01,7.09
		c-1.52,1.25-2.96,2.62-4.36,4C620.83,229.83,619.4,231.25,618,232.72z"/>
	<path d="M644.67,214.31c-0.02,0.02-0.04,0.04-0.05,0.07c-0.02,0.03-0.04,0.05-0.06,0.08C644.59,214.4,644.63,214.35,644.67,214.31z
		"/>
	<path d="M667.18,197.29c2.7-2.14,4.67-5.03,6.57-7.85c0,0,0-0.01-0.01-0.01l0,0c-0.06,0.03-0.12,0.05-0.18,0.08
		c0,0,0.01,0,0.01-0.01c-1.41,0.59-2.81,1.18-4.17,1.89c-1.64,0.86-3.17,1.88-4.63,3.02c-1.35,1.05-2.52,2.36-3.62,3.67
		c-1.16,1.38-2.22,2.84-3.17,4.37c0,0,0,0.01,0,0.01C661.29,201.16,664.41,199.49,667.18,197.29z"/>
	<path d="M261.84,534.62c4.57-3.78,9.15-7.55,13.69-11.37c4.46-3.75,8.92-7.51,13.38-11.26c9.02-7.6,18.15-15.08,27.23-22.61
		c4.57-3.79,9.19-7.51,13.65-11.42c4.45-3.89,8.73-7.98,12.93-12.14c4.96-4.92,9.84-9.93,14.61-15.05c0,0,0-0.01,0-0.01c0,0,0,0,0,0
		c-4.89,3.06-9.7,6.22-14.49,9.44c-4.88,3.28-9.73,6.64-14.42,10.19c-4.87,3.69-9.56,7.58-14.28,11.46
		c-4.58,3.77-9.16,7.55-13.75,11.31c-4.55,3.74-9.1,7.47-13.65,11.21c-4.51,3.71-9.07,7.36-13.6,11.04
		c-9.19,7.46-18.35,14.98-27.45,22.54c-4.63,3.85-9.26,7.7-13.9,11.54c-2.26,1.87-4.5,3.77-6.79,5.59
		c-2.33,1.85-4.66,3.69-6.98,5.54c-1.59,1.21-3.18,2.42-4.77,3.63c-1.81,1.38-3.71,2.63-5.53,4.01c-3.89,2.96-7.7,6.06-11.24,9.44
		c-3.37,3.21-6.62,6.54-9.79,9.95c-1.53,1.64-3.03,3.31-4.51,5c-0.78,0.89-1.57,1.77-2.34,2.67c-0.38,0.44-0.76,0.88-1.14,1.32
		c-0.24,0.28-0.52,0.55-0.75,0.84c-0.73,0.67,0.01,2.19,1.07,1.82c0.54-0.19,1.03-0.55,1.52-0.83c0.6-0.34,1.2-0.7,1.8-1.04
		c1.29-0.74,2.57-1.5,3.84-2.26c2.41-1.43,4.8-2.92,7.16-4.44c2.44-1.58,4.86-3.19,7.25-4.85c2.61-1.82,5.13-3.75,7.61-5.74
		c2.23-1.79,4.44-3.63,6.5-5.61c0.98-0.94,1.95-1.92,2.97-2.83c1.13-1.01,2.26-2.02,3.39-3.04c4.4-3.94,8.89-7.77,13.44-11.53
		C243.61,549.64,252.75,542.16,261.84,534.62z"/>
	<path d="M167.6,607.45c-4.98,2.15-9.68,4.8-13.95,8.15c-2.12,1.66-3.99,3.66-5.77,5.67c-1.7,1.92-3.27,3.97-4.77,6.05
		c-0.19,0.27,0.16,0.52,0.4,0.4c0,0,0,0.01,0.01,0.01c4.8-2.22,9.46-4.83,13.56-8.2c2.08-1.72,3.96-3.71,5.72-5.75
		C164.52,611.77,166.12,609.65,167.6,607.45C167.61,607.45,167.61,607.45,167.6,607.45C167.6,607.45,167.6,607.45,167.6,607.45z"/>
	<path d="M338.04,393.23C338.04,393.23,338.04,393.23,338.04,393.23c-5.64-0.71-11.28-1.47-16.93-2.13
		c-5.69-0.67-11.41-1.11-17.14-1.38c-5.86-0.28-11.71-0.3-17.57-0.32c-5.87-0.03-11.74-0.02-17.61-0.08
		c-5.85-0.06-11.69-0.14-17.54-0.16c-3.21-0.01-6.41-0.05-9.62-0.05c-2.64,0-5.28,0.02-7.91,0.11c-5.95,0.19-11.9,0.59-17.83,1.15
		c-2.89,0.27-5.77,0.55-8.65,0.89c-2.71,0.32-5.44,0.59-8.11,1.12c-1.42,0.28-2.84,0.59-4.27,0.86c0,0,0,0.01,0,0.01
		c1.32,0.25,2.64,0.54,3.96,0.8c1.32,0.26,2.67,0.45,4,0.64c2.82,0.39,5.66,0.7,8.5,0.97c2.95,0.28,5.89,0.59,8.84,0.82
		c2.98,0.24,5.96,0.44,8.94,0.59c2.95,0.15,5.91,0.25,8.86,0.29c2.92,0.04,5.85-0.01,8.77-0.02c5.82-0.02,11.64-0.07,17.46-0.13
		c5.87-0.06,11.74-0.1,17.61-0.11c5.89-0.01,11.79,0.04,17.68-0.16c5.77-0.19,11.54-0.54,17.29-1.1c5.68-0.56,11.34-1.34,17-2.06
		C335.18,393.58,336.61,393.41,338.04,393.23z"/>
	<path d="M125.7,392.76c-0.11,0.02-0.21,0.09-0.27,0.19c-0.03,0.04-0.06,0.09-0.07,0.15c-0.01,0.04-0.02,0.09-0.02,0.13
		c0,0.04,0,0.09,0.02,0.13c0.02,0.06,0.04,0.11,0.07,0.15c0.06,0.09,0.15,0.17,0.27,0.19c4.43,0.84,8.93,1.36,13.42,1.7
		c4.75,0.36,9.54,0.57,14.3,0.41c4.66-0.15,9.32-0.56,13.96-1.01c4.62-0.45,9.23-0.99,13.83-1.56c0.01,0,0.01-0.01,0-0.01
		c-4.48-0.56-8.98-1.08-13.48-1.53c-4.64-0.46-9.29-0.85-13.95-1.04c-1.18-0.05-2.36-0.07-3.54-0.07c-3.59,0-7.18,0.19-10.75,0.44
		C134.87,391.36,130.24,391.89,125.7,392.76z"/>
	<path d="M535.07,396.89c4.72-0.03,9.44-0.61,14.11-1.24c2.23-0.3,4.45-0.67,6.66-1.08c2.19-0.41,4.37-0.91,6.56-1.33
		c0,0,0-0.01,0-0.01c-2.08-0.4-4.14-0.88-6.22-1.27c-2.22-0.42-4.44-0.79-6.67-1.1c-4.79-0.66-9.6-1.21-14.44-1.28
		c-0.3,0-0.59-0.01-0.89-0.01c-4.44,0-8.9,0.47-13.29,1.07c-4.52,0.62-9.01,1.51-13.44,2.59c0,0,0,0.01,0,0.01
		c4.33,1.06,8.7,1.91,13.1,2.54C525.35,396.46,530.21,396.92,535.07,396.89z"/>
	<path d="M713.69,391.43c-1.17-0.3-2.35-0.59-3.53-0.87c-0.82-0.2-1.64-0.41-2.48-0.5c-0.36-0.04-0.7-0.03-1.03,0.03
		c-0.17-0.01-0.33-0.01-0.5-0.02c-10.05-1.37-20.16-1.98-30.3-1.98c-1.34,0-2.67,0.01-4.01,0.03c-5.93,0.09-11.85,0.1-17.78,0.16
		c-5.91,0.06-11.82,0.14-17.74,0.11c-4.2-0.02-8.38-0.01-12.57,0.18c-4.2,0.2-8.39,0.54-12.58,0.95
		c-8.35,0.82-16.67,2.09-24.91,3.71c0,0,0,0.01,0,0.01c11.45,2.24,23.04,3.79,34.68,4.5c2.91,0.18,5.83,0.29,8.75,0.34
		c2.9,0.05,5.81,0,8.72-0.02c5.93-0.03,11.87,0.08,17.8,0.14c4.26,0.04,8.53,0.07,12.79,0.1c4.26,0.03,8.51,0.12,12.77,0.03
		c8.15-0.17,16.29-0.83,24.37-1.94c0.14,0,0.27-0.01,0.41-0.01c0.29,0.06,0.59,0.08,0.89,0.05c0.82-0.08,1.59-0.26,2.39-0.44
		c1.29-0.3,2.57-0.63,3.86-0.95c1.15-0.29,2.29-0.58,3.43-0.88c1.19-0.3,2.34-0.67,3.54-0.92c0,0,0-0.01,0-0.01
		c-1.1-0.22-2.16-0.54-3.23-0.84C716.19,392.03,714.93,391.74,713.69,391.43z"/>
	<path d="M519.13,445.52c2.64,1.3,5.28,2.59,7.91,3.88c5.3,2.59,10.61,5.15,15.92,7.7c4.52,2.17,8.97,4.46,13.48,6.64
		c4.99,2.42,10.14,4.53,15.32,6.52c4.75,1.83,9.59,3.38,14.5,4.71c2.38,0.65,4.78,1.22,7.18,1.78c1.17,0.28,2.36,0.52,3.54,0.78
		c0.55,0.12,1.1,0.23,1.65,0.34c0.4,0.08,0.81,0.19,1.23,0.21c0.42,0.07,0.83,0.14,1.25,0.22c0,0,0.01,0,0.01-0.01
		c-0.87-0.71-1.7-1.46-2.57-2.17c-1.11-0.89-2.24-1.77-3.37-2.64c-2.26-1.73-4.55-3.44-6.89-5.07c-4.8-3.36-9.78-6.44-14.92-9.23
		c-2.59-1.41-5.19-2.8-7.84-4.1c-2.61-1.28-5.28-2.45-7.93-3.63c-2.67-1.19-5.34-2.37-8-3.6c-2.68-1.24-5.36-2.49-8.04-3.71
		c-4.62-2.11-9.24-4.21-13.87-6.3c-4.99-2.25-9.96-4.57-15.02-6.65c-4.66-1.92-9.43-3.57-14.21-5.17c-2.33-0.78-4.68-1.54-7.04-2.21
		c-1.2-0.34-2.4-0.71-3.61-1.03c-0.99-0.25-1.96-0.52-2.98-0.64c-0.42-0.08-0.84-0.16-1.25-0.26c-0.37-0.09-0.75-0.22-1.14-0.22
		c-0.01,0-0.03,0-0.04,0v0c-0.19,0-0.38,0.08-0.52,0.21c-0.31,0.31-0.25,0.72,0,1.03c0.29,0.36,0.75,0.63,1.13,0.9
		c0.82,0.67,1.58,1.38,2.45,2c1.21,0.87,2.44,1.71,3.67,2.55c2.33,1.6,4.73,3.12,7.13,4.62c4.92,3.06,9.91,6.03,15.07,8.67
		C513.9,442.98,516.52,444.23,519.13,445.52z"/>
	<path d="M639.09,493.42c-2.85-2.05-5.86-3.94-9.04-5.45c-3.14-1.49-6.49-2.59-9.85-3.48c-3.33-0.88-6.73-1.52-10.14-1.98l0,0
		c0,0-0.01,0,0,0.01c4.81,4.47,10.17,8.55,16.06,11.51c1.63,0.82,3.35,1.49,5.07,2.12c1.63,0.6,3.29,1.13,4.97,1.6
		c1.49,0.41,2.99,0.77,4.5,1.07c1.57,0.31,3.16,0.47,4.75,0.67c0.33,0.04,0.66,0.09,0.98,0.14c0,0,0.01,0,0-0.01
		c-1.11-1.01-2.17-2.08-3.3-3.07C641.81,495.43,640.46,494.41,639.09,493.42z"/>
	<path d="M682.04,513.74c-2.63-1.9-5.46-3.54-8.39-4.93c-3.03-1.43-6.23-2.48-9.43-3.44c-2.98-0.9-6.01-1.65-9.06-2.29
		c0,0,0,0.01,0,0.01c-0.06-0.02-0.12-0.03-0.19-0.03c-0.15,0-0.29,0.05-0.41,0.18c-0.22,0.22-0.26,0.66,0,0.87
		c2.43,1.93,4.93,3.77,7.5,5.51c2.65,1.79,5.36,3.52,8.25,4.91c3.06,1.47,6.28,2.67,9.56,3.56c3.01,0.82,6.06,1.24,9.15,1.61
		c0,0,0.01-0.01,0-0.01c-1.1-1.06-2.19-2.13-3.35-3.12C684.5,515.58,683.28,514.64,682.04,513.74z"/>
	<path d="M354.93,362.37c-2.36-1.99-4.82-3.86-7.38-5.6c-2.67-1.8-5.45-3.47-8.37-4.82c-3.02-1.4-6.19-2.49-9.36-3.46
		c-2.95-0.91-5.97-1.62-9.01-2.18c0,0,0,0,0,0c0,0-0.01,0,0,0.01c2.32,1.94,4.75,3.76,7.26,5.44c2.68,1.8,5.46,3.48,8.35,4.92
		c2.97,1.47,6.15,2.58,9.32,3.54C348.75,361.12,351.82,361.82,354.93,362.37C354.93,362.38,354.93,362.38,354.93,362.37z"/>
	<path d="M187.99,288.42c2.58,1.4,5.2,2.73,7.84,4.02c2.62,1.28,5.28,2.46,7.93,3.67c5.29,2.43,10.59,4.85,15.89,7.27
		c5.28,2.41,10.55,4.85,15.82,7.3c5.37,2.49,10.71,5.02,16.09,7.49c5.57,2.55,11.12,5.14,16.77,7.51
		c5.39,2.27,10.88,4.29,16.36,6.32c7.13,2.64,14.32,5.11,21.56,7.45c0,0,0.01-0.01,0-0.01c-9.73-6.19-19.63-12.12-29.7-17.74
		c-5.14-2.87-10.42-5.48-15.72-8.05c-5.36-2.59-10.74-5.17-16.12-7.72c-10.51-4.98-20.98-10.06-31.45-15.14
		c-5.23-2.53-10.43-5.14-15.75-7.47c-5.59-2.45-11.28-4.68-17.02-6.75c-6.91-2.5-13.93-4.7-21.11-6.29c0,0,0,0,0,0
		c0,0-0.01,0,0,0.01c4.32,3.36,8.84,6.46,13.49,9.35C177.81,282.71,182.85,285.65,187.99,288.42z"/>
	<path d="M118.58,253.02c1.29,0.79,2.61,1.52,3.94,2.24c1.47,0.79,2.98,1.56,4.53,2.2c2.91,1.19,5.91,2.14,8.89,3.12
		c2.93,0.96,5.85,1.94,8.8,2.83c0.01,0,0.01-0.01,0-0.01c-2.5-1.66-5.05-3.25-7.58-4.86c-2.67-1.69-5.34-3.4-8.11-4.92
		c-1.37-0.75-2.83-1.35-4.27-1.95c-1.49-0.62-2.99-1.21-4.51-1.74c-2.75-0.97-5.58-1.76-8.44-2.33c0,0,0,0.01,0,0.01
		c-0.26-0.06-0.52,0.27-0.28,0.47C113.76,249.88,116.13,251.52,118.58,253.02z"/>
	<path d="M385.52,205.39c0,0.01,0,0.03,0.01,0.04c0.02,0.12,0.03,0.23,0.05,0.35C385.55,205.65,385.54,205.52,385.52,205.39z"/>
	<path d="M349.44,56.54c0.2,1.47,0.39,2.94,0.58,4.41c0.37,2.87,0.81,5.74,1.29,8.6c0.98,5.81,2.09,11.59,3.39,17.34
		c2.62,11.55,5.19,23.11,7.78,34.67c1.3,5.79,2.62,11.58,3.93,17.36c1.32,5.81,2.66,11.61,3.91,17.43
		c1.23,5.71,2.45,11.42,3.65,17.13c1.21,5.76,2.63,11.47,4.15,17.16c1.24,4.65,2.59,9.28,4.04,13.86c1.42,4.48,2.93,8.94,4.65,13.31
		c0,0.01,0.01,0,0.01,0c-0.28-4.15-0.74-8.28-1.29-12.4c-1.53-11.58-3.67-23.09-6.4-34.45c-1.36-5.67-2.7-11.35-4.03-17.02
		c-1.36-5.8-2.62-11.63-3.92-17.44c-2.59-11.59-5.2-23.17-7.81-34.75c-1.3-5.76-2.61-11.52-3.9-17.28
		c-1.28-5.72-2.75-11.41-4.41-17.03c-0.74-2.53-1.49-5.05-2.31-7.56c-0.39-1.21-0.79-2.42-1.18-3.64c-0.41-1.27-0.8-2.54-1.25-3.79
		c-0.11-0.3-0.36-0.51-0.67-0.51c-0.06,0-0.12,0.01-0.19,0.03c-0.34,0.09-0.58,0.46-0.49,0.81
		C349.09,54.05,349.27,55.29,349.44,56.54z"/>
	<path d="M394,260.78c0.4,1.73,0.91,3.43,1.41,5.13c0.54,1.81,1.14,3.61,1.77,5.4c1.16,3.28,2.46,6.49,3.85,9.69c0,0,0.01,0,0.01,0
		c-0.05-1.64-0.1-3.28-0.2-4.93c-0.11-1.85-0.29-3.69-0.48-5.54c-0.39-3.7-0.91-7.4-1.68-11.04c-0.74-3.55-1.88-7.03-3.08-10.44
		c-1.18-3.34-2.52-6.63-3.97-9.86c0,0,0,0,0,0c0,0-0.01,0-0.01,0.01c0.07,3.56,0.28,7.11,0.65,10.65
		C392.65,253.51,393.17,257.18,394,260.78z"/>
	<path d="M409.21,309.68c-0.37-1.87-1.04-3.7-1.74-5.46c-0.67-1.69-1.45-3.33-2.32-4.93c0,0,0,0,0,0c0,0-0.01,0-0.01,0
		c-0.19,3.75-0.04,7.61,0.82,11.28c0.8,3.41,2.29,6.61,3.9,9.7c0,0,0.01,0,0.01,0c0.06-1.63,0.1-3.25,0.03-4.89
		C409.81,313.47,409.58,311.56,409.21,309.68z"/>
	<path d="M455.2,508.32c-0.45-2.95-0.95-5.89-1.53-8.82c-0.58-2.92-1.3-5.8-2.05-8.67c-0.75-2.87-1.57-5.73-2.45-8.56
		c-1.75-5.66-3.79-11.22-6-16.71c-0.44-1.1-0.89-2.19-1.34-3.29c0,0,0,0-0.01,0c0,0,0,0,0,0c0.27,5.77,0.71,11.53,1.42,17.26
		c0.75,6.02,1.74,12.02,3,17.96c1.24,5.81,2.94,11.52,4.79,17.15c1.82,5.53,3.69,11.05,5.79,16.48c0.38,0.97,0.76,1.95,1.15,2.92
		c0,0,0.01,0,0.01,0c-0.32-5.56-0.89-11.1-1.58-16.62C456.03,514.39,455.66,511.35,455.2,508.32z"/>
	<path d="M493.43,679.25c-0.48-2.81-1.04-5.61-1.62-8.41c-1.18-5.71-2.57-11.38-3.86-17.07c-1.31-5.76-2.61-11.52-3.9-17.29
		c-2.56-11.43-5.07-22.88-7.52-34.34c-2.45-11.48-5.58-22.82-9.47-33.9c-1.11-3.16-2.29-6.29-3.5-9.41c0,0,0,0,0,0c0,0,0,0,0,0
		c0.41,5.66,0.96,11.3,1.7,16.93c0.77,5.88,1.77,11.73,2.91,17.55c1.15,5.84,2.55,11.63,3.92,17.42c1.34,5.68,2.62,11.37,3.94,17.06
		c1.33,5.73,2.62,11.46,3.9,17.2c1.29,5.73,2.61,11.45,3.82,17.2c1.19,5.65,2.5,11.29,4.01,16.87c1.49,5.51,3.34,10.91,5.24,16.29
		c1.07,3.04,2.15,6.08,3.25,9.11c0.04,0.1,0.2,0.06,0.17-0.04c-0.52-5.51-1.08-11.03-1.74-16.53
		C494.31,685.01,493.92,682.12,493.43,679.25z"/>
	<path d="M501.45,722.31c-0.29-1.57-0.79-3.1-1.33-4.59c-0.5-1.37-1.09-2.71-1.72-4.02c0,0,0,0,0,0c0,0,0,0,0,0
		c-0.02,2.96,0.2,5.97,0.87,8.86c0.64,2.71,1.77,5.25,2.87,7.79c0,0,0.01,0,0.01,0c-0.04-1.19-0.05-2.38-0.14-3.57
		C501.91,725.28,501.73,723.79,501.45,722.31z"/>
</g>
</svg>
